<svg width="20" height="22" viewBox="0 0 20 22" fill="none" xmlns="http://www.w3.org/2000/svg">
<path d="M1 22C0.716667 22 0.479167 21.9042 0.2875 21.7125C0.0958333 21.5208 0 21.2833 0 21C0 20.7167 0.0958333 20.4792 0.2875 20.2875C0.479167 20.0958 0.716667 20 1 20H19C19.2833 20 19.5208 20.0958 19.7125 20.2875C19.9042 20.4792 20 20.7167 20 21C20 21.2833 19.9042 21.5208 19.7125 21.7125C19.5208 21.9042 19.2833 22 19 22H1ZM3 19C2.71667 19 2.47917 18.9042 2.2875 18.7125C2.09583 18.5208 2 18.2833 2 18V13C1.45 12.1 1.025 11.1458 0.725 10.1375C0.425 9.12917 0.275 8.1 0.275 7.05C0.275 6.03333 0.404167 5.03333 0.6625 4.05C0.920833 3.06667 1.225 2.1 1.575 1.15C1.70833 0.8 1.925 0.520833 2.225 0.3125C2.525 0.104167 2.85833 0 3.225 0C3.74167 0 4.18333 0.175 4.55 0.525C4.91667 0.875 5.06667 1.29167 5 1.775L4.725 4.05C4.625 4.85 4.69583 5.60833 4.9375 6.325C5.17917 7.04167 5.54167 7.67083 6.025 8.2125C6.50833 8.75417 7.09167 9.1875 7.775 9.5125C8.45833 9.8375 9.2 10 10 10C11 10 12.0042 10.1042 13.0125 10.3125C14.0208 10.5208 14.9 10.8167 15.65 11.2C16.4 11.5833 16.9792 12.0708 17.3875 12.6625C17.7958 13.2542 18 13.9833 18 14.85V18C18 18.2833 17.9042 18.5208 17.7125 18.7125C17.5208 18.9042 17.2833 19 17 19H3ZM4 17H16V14.85C16 14.45 15.9 14.0958 15.7 13.7875C15.5 13.4792 15.2167 13.2333 14.85 13.05C14.1667 12.7167 13.375 12.4583 12.475 12.275C11.575 12.0917 10.75 12 10 12C8.9 12 7.87917 11.775 6.9375 11.325C5.99583 10.875 5.19583 10.2708 4.5375 9.5125C3.87917 8.75417 3.38333 7.87917 3.05 6.8875C2.71667 5.89583 2.61667 4.86667 2.75 3.8C2.58333 4.3 2.4625 4.83333 2.3875 5.4C2.3125 5.96667 2.275 6.51667 2.275 7.05C2.275 8.01667 2.44583 8.94583 2.7875 9.8375C3.12917 10.7292 3.53333 11.6 4 12.45V17ZM10 9C8.9 9 7.95833 8.60833 7.175 7.825C6.39167 7.04167 6 6.1 6 5C6 3.9 6.39167 2.95833 7.175 2.175C7.95833 1.39167 8.9 1 10 1C11.1 1 12.0417 1.39167 12.825 2.175C13.6083 2.95833 14 3.9 14 5C14 6.1 13.6083 7.04167 12.825 7.825C12.0417 8.60833 11.1 9 10 9ZM10 7C10.55 7 11.0208 6.80417 11.4125 6.4125C11.8042 6.02083 12 5.55 12 5C12 4.45 11.8042 3.97917 11.4125 3.5875C11.0208 3.19583 10.55 3 10 3C9.45 3 8.97917 3.19583 8.5875 3.5875C8.19583 3.97917 8 4.45 8 5C8 5.55 8.19583 6.02083 8.5875 6.4125C8.97917 6.80417 9.45 7 10 7ZM6 19V18.075C6 16.9583 6.3875 16 7.1625 15.2C7.9375 14.4 8.88333 14 10 14H13C13.2833 14 13.5208 14.0958 13.7125 14.2875C13.9042 14.4792 14 14.7167 14 15C14 15.2833 13.9042 15.5208 13.7125 15.7125C13.5208 15.9042 13.2833 16 13 16H10C9.43333 16 8.95833 16.2042 8.575 16.6125C8.19167 17.0208 8 17.5083 8 18.075V19H6Z" fill="#E8EAED"/>
</svg>
