<svg width="132" height="34" viewBox="0 0 132 34" fill="none" xmlns="http://www.w3.org/2000/svg">
<g style="mix-blend-mode:screen">
<path d="M60.0018 24.4149H56.7269L61.7168 9.68375H65.6552L70.6381 24.4149H67.3632L63.7425 13.05H63.6296L60.0018 24.4149ZM59.7971 18.6246H67.5326V21.0558H59.7971V18.6246Z" fill="white"/>
<path d="M75.3281 9.68375V24.4149H72.3214V9.68375H75.3281Z" fill="white"/>
<path d="M83.503 13.3665V15.6683H76.9744V13.3665H83.503ZM78.4566 10.7195H81.4632V21.0198C81.4632 21.3027 81.5056 21.5233 81.5903 21.6816C81.675 21.835 81.7926 21.9429 81.9432 22.0053C82.0985 22.0676 82.2773 22.0988 82.4796 22.0988C82.6208 22.0988 82.7619 22.0868 82.9031 22.0628C83.0442 22.034 83.1525 22.0124 83.2277 21.9981L83.7006 24.2782C83.5501 24.3262 83.3383 24.3813 83.0654 24.4437C82.7925 24.5108 82.4608 24.5516 82.0702 24.5659C81.3456 24.5947 80.7104 24.4964 80.1646 24.271C79.6235 24.0457 79.2023 23.6956 78.9012 23.2209C78.6001 22.7461 78.4519 22.1467 78.4566 21.4226V10.7195Z" fill="white"/>
<path d="M85.751 24.4149V9.68375H91.4538C92.5454 9.68375 93.4771 9.88276 94.2487 10.2808C95.0251 10.674 95.6156 11.2326 96.0203 11.9567C96.4296 12.676 96.6343 13.5224 96.6343 14.4958C96.6343 15.4741 96.4273 16.3156 96.0132 17.0205C95.5992 17.7207 94.9992 18.2577 94.2134 18.6318C93.4324 19.0058 92.4866 19.1928 91.3761 19.1928H87.5578V16.6897H90.8821C91.4656 16.6897 91.9502 16.6082 92.336 16.4451C92.7219 16.2821 93.0089 16.0375 93.1971 15.7114C93.39 15.3854 93.4865 14.9802 93.4865 14.4958C93.4865 14.0067 93.39 13.5943 93.1971 13.2586C93.0089 12.923 92.7195 12.6688 92.329 12.4962C91.9431 12.3188 91.4561 12.2301 90.868 12.2301H88.8071V24.4149H85.751ZM93.5571 17.7111L97.1496 24.4149H93.7759L90.261 17.7111H93.5571Z" fill="white"/>
<path d="M101.829 24.6235C101.137 24.6235 100.521 24.5012 99.9798 24.2566C99.4387 24.0073 99.0105 23.6405 98.6953 23.1561C98.3847 22.667 98.2294 22.058 98.2294 21.3291C98.2294 20.7153 98.34 20.1998 98.5611 19.7826C98.7823 19.3654 99.0835 19.0298 99.4646 18.7756C99.8457 18.5215 100.279 18.3297 100.763 18.2002C101.253 18.0707 101.765 17.9796 102.302 17.9269C102.932 17.8597 103.441 17.7974 103.826 17.7398C104.212 17.6775 104.492 17.5864 104.666 17.4665C104.84 17.3466 104.927 17.1692 104.927 16.9342V16.8911C104.927 16.4355 104.786 16.0831 104.504 15.8337C104.226 15.5844 103.831 15.4597 103.318 15.4597C102.777 15.4597 102.347 15.582 102.027 15.8265C101.707 16.0663 101.495 16.3684 101.391 16.7328L98.6106 16.5027C98.7517 15.8313 99.0293 15.2511 99.4434 14.762C99.8575 14.2681 100.392 13.8892 101.046 13.6255C101.704 13.3569 102.467 13.2227 103.332 13.2227C103.935 13.2227 104.511 13.2946 105.062 13.4385C105.617 13.5823 106.108 13.8053 106.537 14.1074C106.97 14.4095 107.311 14.7979 107.56 15.2727C107.809 15.7426 107.934 16.3061 107.934 16.963V24.4149H105.083V22.8828H104.998C104.824 23.2281 104.591 23.5326 104.299 23.7963C104.008 24.0552 103.657 24.259 103.248 24.4077C102.838 24.5516 102.365 24.6235 101.829 24.6235ZM102.69 22.5088C103.132 22.5088 103.523 22.42 103.862 22.2426C104.2 22.0604 104.466 21.8158 104.659 21.5089C104.852 21.202 104.949 20.8544 104.949 20.466V19.2935C104.854 19.3559 104.725 19.4134 104.56 19.4661C104.4 19.5141 104.219 19.5597 104.017 19.6028C103.815 19.6412 103.612 19.6771 103.41 19.7107C103.208 19.7395 103.024 19.7659 102.859 19.7898C102.507 19.8426 102.198 19.9265 101.935 20.0416C101.671 20.1567 101.467 20.3125 101.321 20.5091C101.175 20.7009 101.102 20.9407 101.102 21.2284C101.102 21.6456 101.25 21.9645 101.547 22.1851C101.848 22.4009 102.229 22.5088 102.69 22.5088Z" fill="white"/>
<path d="M119.287 16.517L116.534 16.6897C116.487 16.4499 116.386 16.2341 116.231 16.0423C116.075 15.8457 115.871 15.6899 115.617 15.5748C115.367 15.4549 115.069 15.3949 114.72 15.3949C114.255 15.3949 113.862 15.4956 113.542 15.697C113.222 15.8937 113.062 16.1574 113.062 16.4883C113.062 16.752 113.165 16.975 113.372 17.1572C113.579 17.3394 113.935 17.4857 114.438 17.596L116.4 17.9988C117.454 18.2194 118.24 18.5742 118.758 19.0633C119.275 19.5525 119.534 20.195 119.534 20.9911C119.534 21.7151 119.324 22.3505 118.906 22.8972C118.492 23.4438 117.922 23.8706 117.198 24.1775C116.478 24.4796 115.647 24.6307 114.706 24.6307C113.271 24.6307 112.128 24.3262 111.276 23.7172C110.429 23.1034 109.933 22.269 109.787 21.214L112.744 21.0558C112.834 21.5017 113.05 21.8422 113.393 22.0772C113.737 22.3074 114.177 22.4224 114.713 22.4224C115.24 22.4224 115.664 22.3193 115.984 22.1131C116.308 21.9022 116.473 21.6312 116.478 21.3003C116.473 21.0222 116.358 20.7944 116.132 20.617C115.906 20.4348 115.558 20.2957 115.087 20.1998L113.21 19.8186C112.151 19.6028 111.363 19.2288 110.846 18.6965C110.333 18.1642 110.076 17.4857 110.076 16.6609C110.076 15.9512 110.264 15.3398 110.641 14.8267C111.022 14.3136 111.556 13.918 112.243 13.6399C112.935 13.3617 113.744 13.2227 114.671 13.2227C116.04 13.2227 117.118 13.5176 117.903 14.1074C118.694 14.6972 119.155 15.5004 119.287 16.517Z" fill="white"/>
<path d="M121.427 28.558V13.3665H124.392V15.2223H124.526C124.657 14.925 124.848 14.6229 125.097 14.316C125.351 14.0043 125.681 13.7454 126.085 13.5392C126.495 13.3282 127.003 13.2227 127.61 13.2227C128.4 13.2227 129.13 13.4337 129.798 13.8557C130.466 14.2728 131 14.9034 131.4 15.7474C131.8 16.5866 132 17.6391 132 18.9051C132 20.1375 131.805 21.1781 131.414 22.0268C131.028 22.8708 130.501 23.511 129.833 23.9474C129.17 24.3789 128.426 24.5947 127.603 24.5947C127.019 24.5947 126.523 24.4964 126.114 24.2998C125.709 24.1032 125.377 23.8562 125.118 23.5589C124.86 23.2568 124.662 22.9523 124.526 22.6454H124.434V28.558H121.427ZM124.37 18.8907C124.37 19.5477 124.46 20.1207 124.639 20.6098C124.817 21.0989 125.076 21.4802 125.415 21.7535C125.754 22.022 126.165 22.1563 126.65 22.1563C127.139 22.1563 127.553 22.0196 127.892 21.7463C128.231 21.4682 128.487 21.0846 128.662 20.5954C128.84 20.1015 128.93 19.5333 128.93 18.8907C128.93 18.2529 128.843 17.6919 128.669 17.2076C128.495 16.7232 128.238 16.3444 127.899 16.0711C127.561 15.7977 127.144 15.6611 126.65 15.6611C126.161 15.6611 125.747 15.793 125.408 16.0567C125.074 16.3204 124.817 16.6945 124.639 17.1788C124.46 17.6631 124.37 18.2338 124.37 18.8907Z" fill="white"/>
<path fill-rule="evenodd" clip-rule="evenodd" d="M20.7889 3.79441e-06H12.2445L0 33.9889H8.69541L20.8448 0.264168L20.8629 0.213773L20.7889 3.79441e-06Z" fill="url(#paint0_linear_3_213)"/>
<path d="M24.2816 34L32.8296 34L20.7926 3.79441e-06H12.2445L24.2816 34Z" fill="url(#paint1_linear_3_213)"/>
<path fill-rule="evenodd" clip-rule="evenodd" d="M32.8032 34H41.3476L53.5921 0.0111211H44.8967L32.7473 33.7358L32.7292 33.7862L32.8032 34Z" fill="url(#paint2_linear_3_213)"/>
<path d="M29.3106 0L20.7625 2.75957e-06L32.7995 34H41.3476L29.3106 0Z" fill="url(#paint3_linear_3_213)"/>
</g>
<defs>
<linearGradient id="paint0_linear_3_213" x1="83.4811" y1="-5.46469e-07" x2="76.1813" y2="45.7845" gradientUnits="userSpaceOnUse">
<stop stop-color="#004837"/>
<stop offset="1" stop-color="#58FFD7"/>
</linearGradient>
<linearGradient id="paint1_linear_3_213" x1="83.4811" y1="-5.46469e-07" x2="76.1813" y2="45.7845" gradientUnits="userSpaceOnUse">
<stop stop-color="#004837"/>
<stop offset="1" stop-color="#58FFD7"/>
</linearGradient>
<linearGradient id="paint2_linear_3_213" x1="32.8296" y1="34" x2="54.1604" y2="0.725971" gradientUnits="userSpaceOnUse">
<stop stop-color="#480045"/>
<stop offset="1" stop-color="#FF5862"/>
</linearGradient>
<linearGradient id="paint3_linear_3_213" x1="32.8296" y1="34" x2="54.1604" y2="0.725971" gradientUnits="userSpaceOnUse">
<stop stop-color="#480045"/>
<stop offset="1" stop-color="#FF5862"/>
</linearGradient>
</defs>
</svg>
